<svg width="24" height="24" viewBox="0 0 24 24" fill="none" xmlns="http://www.w3.org/2000/svg">
<path d="M19.1259 6V15.75C19.1259 16.0484 19.0074 16.3345 18.7964 16.5455C18.5855 16.7565 18.2993 16.875 18.0009 16.875C17.7026 16.875 17.4164 16.7565 17.2054 16.5455C16.9945 16.3345 16.8759 16.0484 16.8759 15.75V8.71875L6.79687 18.7959C6.58553 19.0073 6.29888 19.126 6 19.126C5.70111 19.126 5.41447 19.0073 5.20312 18.7959C4.99178 18.5846 4.87305 18.2979 4.87305 17.9991C4.87305 17.7002 4.99178 17.4135 5.20312 17.2022L15.2822 7.125H8.25094C7.95257 7.125 7.66642 7.00647 7.45544 6.7955C7.24446 6.58452 7.12594 6.29837 7.12594 6C7.12594 5.70163 7.24446 5.41548 7.45544 5.2045C7.66642 4.99353 7.95257 4.875 8.25094 4.875H18.0009C18.2993 4.875 18.5855 4.99353 18.7964 5.2045C19.0074 5.41548 19.1259 5.70163 19.1259 6Z" fill="#08483C"/>
</svg>
